PathFileType	4	(X/Y/Z)	s10c0201.trc
DataRate	CameraRate	NumFrames	NumMarkers	Units	OrigDataRate	OrigDataStartFrame	OrigNumFrames
200	200	4	50	mm	200	1500	2000
Frame#	Time	racr			lacr			c7			jug			rlel			rdr			llel			ldr			s2			lic			ric			lasi			rasi			rpsi			lpsi			rgt			lgt			rth1			rth2			rth3			rth4			rlfc			rmfc			rsh1			rsh2			rsh3			rsh4			rlmal			rmmal			rcal			rtoe			rmt5			lth1			lth2			lth4			lth3			llfc			lmfc			llmal			lmmal			lcal			lmt5			lsh1			lsh2			lsh3			lsh4			ltoe			SBIKE			LBIKE			RBIKE			
		X1	Y1	Z1	X2	Y2	Z2	X3	Y3	Z3	X4	Y4	Z4	X5	Y5	Z5	X6	Y6	Z6	X7	Y7	Z7	X8	Y8	Z8	X9	Y9	Z9	X10	Y10	Z10	X11	Y11	Z11	X12	Y12	Z12	X13	Y13	Z13	X14	Y14	Z14	X15	Y15	Z15	X16	Y16	Z16	X17	Y17	Z17	X18	Y18	Z18	X19	Y19	Z19	X20	Y20	Z20	X21	Y21	Z21	X22	Y22	Z22	X23	Y23	Z23	X24	Y24	Z24	X25	Y25	Z25	X26	Y26	Z26	X27	Y27	Z27	X28	Y28	Z28	X29	Y29	Z29	X30	Y30	Z30	X31	Y31	Z31	X32	Y32	Z32	X33	Y33	Z33	X34	Y34	Z34	X35	Y35	Z35	X36	Y36	Z36	X37	Y37	Z37	X38	Y38	Z38	X39	Y39	Z39	X40	Y40	Z40	X41	Y41	Z41	X42	Y42	Z42	X43	Y43	Z43	X44	Y44	Z44	X45	Y45	Z45	X46	Y46	Z46	X47	Y47	Z47	X48	Y48	Z48	X49	Y49	Z49	X50	Y50	Z50	
1500	7.5000	408.321325	1263.539238	-47.037604	423.197445	1301.320929	-356.825254	367.700844	1336.181977	-207.831781	381.020946	1186.024491	-214.574980	425.177337	1015.617085	54.065000	602.395331	913.366141	-22.882593	479.812743	1067.944095	-510.285184	601.888206	907.671587	-411.775463	-121.324627	1084.450693	-201.766454	23.311912	1117.866343	-379.056739	71.636676	1114.526538	-76.771512	67.713236	1032.550905	-351.458986	77.144079	1029.411206	-99.148818	-79.655833	1139.876329	-151.483523	-85.003574	1150.207920	-262.556039	-13.384809	992.059162	-26.623949	-59.489416	967.723671	-402.498841	94.770956	892.942999	-15.796990	175.041864	861.486688	-38.052548	227.225009	794.088857	-48.313469	192.991644	891.469922	-51.599644	299.828595	725.449910	-72.497572	268.801073	711.719248	-186.043388	200.943883	664.881884	-34.381087	148.738428	594.059485	-48.184617	70.587883	557.525241	-47.881214	167.921066	575.316220	-75.759639	-13.658251	498.715761	-59.131123	13.118980	491.105776	-139.591414	-64.066369	517.389643	-107.833944	91.223683	330.719242	-100.721738	15.285225	373.135254	-40.810826	45.517864	875.255623	-423.751376	127.286591	845.909885	-419.631470	148.187859	876.030006	-415.747155	183.467282	777.115214	-411.996417	279.695318	710.518250	-397.847221	288.563954	710.713067	-280.994493	198.176649	344.158407	-386.505624	219.740131	349.334955	-306.596064	147.649124	310.801683	-342.602970	318.805215	262.872535	-406.677171	231.226052	598.237382	-419.656056	248.573020	512.913169	-407.719442	218.687731	429.459490	-402.781460	278.168926	513.946175	-383.987338	400.597159	296.377360	-351.180171	-218.025989	833.538744	-214.450753	-104.045675	80.258014	-418.461117	-103.986616	80.365155	-18.331381	
1501	7.5050	405.666134	1266.284762	-44.436129	423.992004	1298.669833	-355.864950	367.520861	1335.685535	-206.874425	381.182722	1185.773820	-211.776618	424.674183	1016.730130	53.172885	602.466631	913.535090	-22.805373	479.814849	1066.604000	-510.515741	602.478527	908.352163	-412.411994	-122.083005	1082.965128	-205.259193	25.227718	1115.101244	-380.225054	69.443195	1115.120857	-76.555719	68.787724	1030.670427	-352.177511	75.715782	1029.071996	-99.826602	-81.064084	1138.613413	-154.635981	-85.269239	1148.077766	-266.066874	-13.031750	991.309543	-27.076000	-59.093820	963.139953	-404.890238	97.032059	896.242161	-17.843882	178.309244	867.586279	-40.056944	232.919591	802.097286	-49.644167	195.326177	899.626694	-54.577613	306.258711	734.313461	-74.259774	276.466079	719.212715	-188.023912	207.713476	673.438978	-35.267615	154.757353	602.817474	-48.872102	76.415204	566.747928	-47.966889	173.577328	584.152636	-76.428930	-8.411055	508.978688	-58.659281	17.398983	500.620111	-139.346614	-59.076146	528.454122	-106.703112	94.743388	340.177920	-100.988502	19.313100	383.109294	-40.750399	44.586494	868.839460	-424.101940	125.809507	838.021865	-419.047656	147.102307	867.397852	-414.704482	180.612501	768.575842	-409.808843	275.070003	702.771194	-394.644958	281.832387	701.945860	-278.670549	195.018904	334.651937	-385.991816	216.767959	339.531194	-306.173802	144.667846	301.711374	-342.233986	315.413162	252.692830	-406.378286	223.679569	589.717133	-417.500767	242.599358	504.696229	-406.774286	214.180268	420.613468	-401.738813	272.777309	505.845520	-383.666276	397.578309	285.548939	-350.967803	-218.070270	833.557166	-214.511020	-103.992488	80.327533	-418.365722	-103.982419	80.368537	-18.328388	
1502	7.5100	403.070878	1268.861345	-41.985523	424.597753	1296.000189	-355.016926	367.596692	1335.187423	-207.580079	381.295392	1185.443289	-208.986515	424.287550	1017.864264	52.500033	602.563947	913.752028	-22.875424	479.289805	1065.289332	-510.849219	603.692215	909.325190	-413.781080	-122.684917	1081.650992	-209.005441	27.307576	1112.386290	-381.249371	67.094020	1115.772084	-76.256850	69.876727	1028.827136	-352.871759	74.527011	1028.945407	-100.398353	-82.405853	1137.367934	-158.213363	-85.217307	1146.193062	-269.778369	-13.140705	990.836548	-27.581407	-58.295912	959.396869	-407.435037	98.788118	899.985612	-19.924386	180.854272	873.853823	-42.275601	238.045794	810.460775	-50.968935	196.918477	906.263605	-56.459039	312.349218	743.501789	-76.019256	282.500034	726.870304	-189.890472	214.249454	682.267854	-36.232432	161.063501	611.707777	-49.410402	82.529101	576.190131	-48.118096	179.544264	593.172651	-77.210665	-3.083469	519.049503	-58.512106	22.630565	510.573243	-139.439501	-53.002953	538.926143	-106.710657	98.886913	349.484096	-101.228803	23.951898	393.022374	-40.694965	43.596547	862.783467	-424.661340	124.937845	831.038721	-419.139503	146.003327	859.659094	-414.377351	177.731804	760.349733	-407.516424	269.861374	694.830286	-391.082321	274.949502	693.084880	-276.315957	191.273442	325.501555	-385.189695	213.207007	329.741843	-305.445524	140.978659	292.909568	-341.773158	311.325674	242.927252	-406.077913	216.114839	581.357334	-415.919624	236.044685	496.682149	-405.673739	208.795379	412.073073	-400.612507	266.789538	497.919183	-383.287560	393.868952	274.762771	-350.674417	-218.162560	833.615764	-214.700127	-104.035708	80.286645	-418.359516	-103.981010	80.372596	-18.323624	
1503	7.5150	400.567090	1271.301192	-39.692682	425.269902	1293.265855	-354.204718	366.391717	1334.853626	-206.493691	381.332622	1185.010109	-206.230683	424.027190	1018.903816	52.119588	602.667842	913.951443	-23.176114	478.426046	1063.934661	-511.133357	604.564636	910.195102	-414.777841	-119.875185	1080.437276	-211.394850	29.372855	1109.726786	-381.807253	64.591280	1116.473181	-75.975651	71.084730	1026.900122	-353.408514	73.434875	1028.814744	-100.793929	-83.704177	1136.365155	-161.935123	-84.473607	1145.116419	-273.085097	-13.625192	990.690078	-28.128833	-56.542301	957.207902	-409.853080	99.960992	904.132891	-21.979922	182.932110	880.525772	-43.946604	242.282663	819.023783	-52.028735	197.937376	913.272778	-58.185908	318.428781	753.370802	-77.124903	288.688566	735.445149	-191.484464	220.735758	691.315345	-37.239663	167.476036	620.881489	-50.150705	88.878612	585.522075	-48.240573	185.795034	602.427962	-77.971821	2.940301	528.849048	-58.364584	28.949433	520.691005	-139.574351	-47.133782	548.667636	-107.041429	103.689308	358.729674	-101.418087	29.210875	402.510511	-40.797114	42.437843	857.254177	-425.496456	123.058075	824.105671	-418.551296	144.544500	852.240021	-413.541500	174.456110	752.651198	-405.209509	263.967665	686.961071	-387.793428	267.953202	684.371770	-273.948111	186.835580	316.611406	-384.060704	209.014094	320.038667	-304.404929	136.667756	284.339263	-341.209263	306.687252	233.421001	-405.790960	208.502521	572.984570	-414.384777	229.160944	488.310583	-404.669607	202.620302	403.732816	-399.247281	260.366485	490.035463	-383.008985	389.509761	264.498597	-350.393142	-218.265154	833.661539	-214.890945	-104.052247	80.205034	-418.459168	-103.983370	80.369330	-18.335676	
